<svg height="512pt" viewBox="0 0 512 512" width="450px" xmlns="http://www.w3.org/2000/svg"><path d="m64 0h32v64h-32zm0 0" fill="#57565c"/><path d="m416 0h32v64h-32zm0 0" fill="#57565c"/><path d="m64 16h32v48h-32zm0 0" fill="#2d2d30"/><path d="m416 16h32v48h-32zm0 0" fill="#2d2d30"/><path d="m432 512h-352c-44.175781 0-80-35.824219-80-80v-304h512v304c0 44.175781-35.824219 80-80 80zm0 0" fill="#e76e54"/><g fill="#fff"><path d="m240 384h-96v-32h64v-96h-64v-32h96zm0 0"/><path d="m176 288h48v32h-48zm0 0"/><path d="m368 384h-32v-121.375l-20.6875 20.6875-22.625-22.625 36.6875-36.6875h38.625zm0 0"/></g><path d="m0 128h512v64h-512zm0 0" fill="#dd523c"/><path d="m0 48h512v112h-512zm0 0" fill="#ffcb5a"/><path d="m64 80h32v32h-32zm0 0" fill="#fff"/><path d="m416 80h32v32h-32zm0 0" fill="#fff"/></svg>
