<svg data-v-5f19e91b="" xmlns="http://www.w3.org/2000/svg" width="323" height="90" viewBox="0 0 323 90"><!----> <!----> <!----> <g data-v-5f19e91b="" id="ea508bbc-2a19-30bb-9630-6c887f18589b" fill="white" transform="matrix(4.559270569581267,0,0,4.559270569581267,97.49594671269548,-3.191489377691269)"><path d="M7.32 14.35L7.32 13.92L3.72 13.92L3.72 7.56L7.32 7.56L7.32 7.13L3.72 7.13L3.72 4.58L3.25 4.58L3.25 6.66C3.25 6.99 3.11 7.13 2.77 7.13L0.52 7.13L0.52 7.56L3.23 7.56L3.23 13.65C3.23 14.10 3.44 14.35 3.92 14.35ZM15.90 14.35L15.90 13.92L14.76 13.92L14.76 9.34C14.76 7.84 13.82 6.96 12.26 6.96C10.93 6.96 10.08 7.57 9.69 8.46L10.05 8.69C10.44 7.80 11.24 7.39 12.25 7.39C13.50 7.39 14.27 8.04 14.27 9.39L14.27 10.43L12.29 10.43C10.15 10.43 9.45 11.27 9.45 12.47C9.45 13.78 10.33 14.52 11.87 14.52C13.17 14.52 13.89 13.96 14.22 13.24L14.28 13.24L14.28 13.76C14.29 14.14 14.48 14.35 14.90 14.35ZM11.91 14.10C10.77 14.10 9.98 13.59 9.98 12.68L9.98 12.26C9.98 11.40 10.64 10.82 12.31 10.82L14.27 10.82L14.27 12.28C14.27 13.45 13.19 14.10 11.91 14.10ZM21.21 14.52C22.85 14.52 24.07 13.83 24.07 12.38C24.07 11.02 23.00 10.68 21.77 10.51L20.64 10.35C19.54 10.19 18.83 9.91 18.83 8.92C18.83 7.85 19.67 7.38 20.97 7.38C22.32 7.38 23.00 7.90 23.46 8.43L23.80 8.09C23.23 7.49 22.39 6.96 20.99 6.96C19.53 6.96 18.34 7.52 18.34 8.95C18.34 10.30 19.40 10.63 20.65 10.81L21.77 10.96C22.86 11.12 23.58 11.40 23.58 12.40C23.58 13.55 22.62 14.10 21.21 14.10C19.96 14.10 19.07 13.69 18.34 12.80L17.99 13.09C18.76 14.03 19.81 14.52 21.21 14.52ZM27.03 14.35L27.52 14.35L27.52 11.68L29.15 10.26L32.49 14.35L33.10 14.35L29.53 9.95L32.72 7.13L32.09 7.13L29.13 9.72L27.57 11.10L27.52 11.10L27.52 3.99L27.03 3.99ZM34.83 14.35L40.77 14.35L40.77 13.92L38.05 13.92L38.05 3.99L34.83 3.99L34.83 4.42L37.56 4.42L37.56 13.92L34.83 13.92ZM46.23 13.48L46.19 13.48L43.58 7.13L43.06 7.13L45.95 14.11L44.87 16.72L43.27 16.72L43.27 17.15L44.62 17.15C45.04 17.15 45.25 17.00 45.39 16.66L49.34 7.13L48.83 7.13Z"></path></g> <!----> <g data-v-5f19e91b="" id="5f2b9aba-fe81-f60b-97fc-e8ad294958ef" transform="matrix(0.9428922001385506,0,0,0.9428922001385506,-6.496621987657967,-1.870079749868978)" stroke="none" fill="white"><path d="M12.245 37.762l3.126 7.592 12.041-4.963 9.554 6.104-3.604 1.483-4.739 2.157 8.33 3.379-9.54 6.093-12.041-4.96-3.126 7.591 6.722 2.771-11.32 7.233 4.417 6.902 11.47-7.333-.326 7.585 8.205.353.566-13.331 8.831-5.649-.36 6.307 1.835-1.227 3.559-2.497v10.922l-10.666 7.472 4.711 6.724 5.955-4.171v13.427h8.191V84.111l6.218 4.357 4.71-6.724-10.928-7.654V63.147l3.852 2.701 1.835 1.227-.358-6.193 8.661 5.536.565 13.331 8.201-.353-.32-7.585 11.47 7.333 4.41-6.902-11.312-7.233 6.72-2.771-3.127-7.591-12.044 4.96-9.377-5.992 8.579-3.479-4.738-2.157-3.85-1.584 9.386-6.004 12.044 4.963 3.127-7.592-6.72-2.771 11.312-7.229-4.41-6.902-11.47 7.328.32-7.583-8.201-.35-.565 13.33-8.679 5.546.376-6.535-1.835 1.233-3.728 2.613V25.727l10.662-7.472-4.712-6.72-5.95 4.167V2.275h-8.194v13.613l-6.217-4.354-4.709 6.72 10.926 7.659V36.41l-3.68-2.581-1.835-1.233.383 6.648-8.854-5.659-.566-13.33-8.205.35.326 7.583-11.47-7.328-4.417 6.902 11.318 7.229-6.721 2.771zm33.856 5.484h7.803l3.901 6.757-3.901 6.756h-7.803L42.2 50.003l3.901-6.757z"></path></g></svg>