<svg data-v-1084b650="" xmlns="http://www.w3.org/2000/svg" viewBox="0 0 300 300"><!----> <!----> <rect data-v-1084b650="" fill="#FFFFFF" x="0" y="0" width="300px" height="300px" class="logo-background-square"></rect> <!----> <!----> <g data-v-1084b650="" id="546face3-a1fb-f64b-aedd-7d211e1587b0" fill="#50c878" stroke="none" transform="matrix(0.7499999999999998,0,0,0.7499999999999998,37.499979972839384,37.49888741970065)"><svg xmlns="http://www.w3.org/2000/svg" viewBox="0 0 100 100"><path d="M12.245 37.762l3.126 7.592 12.041-4.963 9.554 6.104-3.604 1.483-4.739 2.157 8.33 3.379-9.54 6.093-12.041-4.96-3.126 7.591 6.722 2.771-11.32 7.233 4.417 6.902 11.47-7.333-.326 7.585 8.205.353.566-13.331 8.831-5.649-.36 6.307 1.835-1.227 3.559-2.497v10.922l-10.666 7.472 4.711 6.724 5.955-4.171v13.427h8.191V84.111l6.218 4.357 4.71-6.724-10.928-7.654V63.147l3.852 2.701 1.835 1.227-.358-6.193 8.661 5.536.565 13.331 8.201-.353-.32-7.585 11.47 7.333 4.41-6.902-11.312-7.233 6.72-2.771-3.127-7.591-12.044 4.96-9.377-5.992 8.579-3.479-4.738-2.157-3.85-1.584 9.386-6.004 12.044 4.963 3.127-7.592-6.72-2.771 11.312-7.229-4.41-6.902-11.47 7.328.32-7.583-8.201-.35-.565 13.33-8.679 5.546.376-6.535-1.835 1.233-3.728 2.613V25.727l10.662-7.472-4.712-6.72-5.95 4.167V2.275h-8.194v13.613l-6.217-4.354-4.709 6.72 10.926 7.659V36.41l-3.68-2.581-1.835-1.233.383 6.648-8.854-5.659-.566-13.33-8.205.35.326 7.583-11.47-7.328-4.417 6.902 11.318 7.229-6.721 2.771zm33.856 5.484h7.803l3.901 6.757-3.901 6.756h-7.803L42.2 50.003l3.901-6.757z"></path></svg></g></svg>